# AST/ASF file generated using VICON BodyLanguage
# -----------------------------------------------
:version 1.10
:name VICON
:units
  mass 1.0
  length 0.45
  angle deg
:documentation
   .ast/.asf automatically generated from VICON data using
   VICON BodyBuilder and BodyLanguage model FoxedUp or BRILLIANT.MOD
:root
   order TX TY TZ RX RY RZ
   axis XYZ
   position 0 0 0  
   orientation 0 0 0 
:bonedata
  begin
     id 1 
     name lhipjoint
     direction 0.570549 -0.739093 0.358072 
     length 2.41801 
     axis 0 0 0  XYZ
  end
  begin
     id 2 
     name lfemur
     direction 0.34202 -0.939693 0  
     length 7.44434  
     axis 0 0 20  XYZ
    dof rx ry rz
    limits (-160.0 20.0)
           (-70.0 70.0)
           (-60.0 70.0)
  end
  begin
     id 3 
     name ltibia
     direction 0.34202 -0.939693 0   
     length 7.60047   
     axis 0 0 20   XYZ
    dof rx
    limits (-10.0 170.0)
  end
  begin
     id 4 
     name lfoot
     direction 0.0909041 -0.249757 0.964032   
     length 2.03437   
     axis -90 7.62852e-016 20   XYZ
    dof rx rz
    limits (-45.0 90.0)
           (-70.0 20.0)
  end
  begin
     id 5 
     name ltoes
     direction 1.53547e-011 -4.2174e-011 1   
     length 1.02054   
     axis -90 7.62852e-016 20   XYZ
    dof rx
    limits (-90.0 20.0)
  end
  begin
     id 6 
     name rhipjoint
     direction -0.558096 -0.746754 0.361784   
     length 2.3932  
     axis 0 0 0  XYZ 
  end
  begin
     id 7 
     name rfemur
     direction -0.34202 -0.939693 0   
     length 7.3886   
     axis 0 0 -20   XYZ
    dof rx ry rz
    limits (-160.0 20.0)
           (-70.0 70.0)
           (-70.0 60.0)
  end
  begin
     id 8 
     name rtibia
     direction -0.34202 -0.939693 0   
     length 7.4839   
     axis 0 0 -20   XYZ
    dof rx
    limits (-10.0 170.0)
 end
 begin
     id 9 
     name rfoot
     direction -0.114619 -0.314914 0.942174   
     length 2.25127  
     axis -90 -7.62852e-016 -20   XYZ
    dof rx rz
    limits (-45.0 90.0)
           (-20.0 70.0)
  end
  begin
     id 10 
     name rtoes
     direction -1.53518e-011 -4.21881e-011 1   
     length 1.11821   
     axis -90 -7.62852e-016 -20   XYZ
    dof rx
    limits (-90.0 20.0)
  end
  begin
     id 11 
     name lowerback
     direction -0.00902269 0.996426 -0.0839821   
     length 2.25052   
     axis 0 0 0   XYZ
    dof rx ry rz
    limits (-20.0 45.0)
           (-30.0 30.0)
           (-30.0 30.0)
  end
  begin
     id 12 
     name upperback
     direction 0.0370973 0.999169 -0.0168941   
     length 2.24876   
     axis 0 0 0   XYZ
    dof rx ry rz
    limits (-20.0 45.0)
           (-30.0 30.0)
           (-30.0 30.0)
  end
  begin
     id 13 
     name thorax
     direction 0.0402726 0.998931 0.0227027   
     length 2.26408   
     axis 0 0 0   XYZ
    dof rx ry rz
    limits (-20.0 45.0)
           (-30.0 30.0)
           (-30.0 30.0)
  end
  begin
     id 14 
     name lowerneck
     direction -0.0733697 0.98508 0.155675   
     length 1.58204   
     axis 0 0 0   XYZ
    dof rx ry rz
    limits (-20.0 45.0)
           (-30.0 30.0)
           (-30.0 30.0)
  end
  begin
     id 15 
     name upperneck
     direction 0.0426554 0.993501 -0.105526   
     length 1.61222   
     axis 0 0 0   XYZ
    dof rx ry rz
    limits (-20.0 45.0)
           (-30.0 30.0)
           (-30.0 30.0)
  end
  begin
     id 16
     name head
     direction 0.020792 0.998384 -0.0528868  
     length 1.61527  
     axis 0 0 0   XYZ
    dof rx ry rz
    limits (-20.0 45.0)
           (-30.0 30.0)
           (-30.0 30.0)
  end
  begin
     id 17 
     name lclavicle
     direction 0.967109 0.155462 -0.201325  
     length 3.59357  
     axis 0 0 0   XYZ
    dof ry rz
    limits (-20.0 10.0)
           (0.0 20.0)
  end
  begin
     id 18 
     name lhumerus
     direction 1 -4.48968e-011 2.38195e-027   
     length 5.38154   
     axis 180 -30 -90   XYZ
    dof rx ry rz
    limits (-60.0 90.0)
           (-90.0 90.0)
           (-90.0 90.0)
  end
  begin
     id 19
     name lradius
     direction 1 -4.48961e-011 4.85371e-027   
     length 3.33312   
     axis 180 -30 -90   XYZ
    dof rx
    limits (-10.0 170.0)
  end
  begin
     id 20
     name lwrist
     direction 1 -4.48961e-011 4.76515e-027   
     length 1.66656   
     axis -3.27502e-015 90 90   XYZ
    dof ry
    limits (-180.0 0.0)
 end
  begin
     id 21 
     name lhand
     direction 1 -4.48951e-011 9.53074e-027   
     length 0.710789   
     axis -6.08098e-015 90 90   XYZ
    dof rx rz
    limits (-90.0 90.0)
           (-45.0 45.0)
  end
  begin
     id 22 
     name lfingers
     direction 1 -4.48953e-011 1.90613e-026   
     length 0.573057   
     axis -1.21619e-014 90 90   XYZ
    dof rx
    limits (0.0 90.0)
  end
  begin
     id 23
     name lthumb
     direction 0.707107 -6.34973e-011 0.707107   
     length 0.822798   
     axis -90 45 -9.86923e-015   XYZ
    dof rx rz
    limits (-45.0 45.0)
           (-45.0 45.0)
  end
  begin
     id 24 
     name rclavicle
     direction -0.9585 0.265289 -0.104398   
     length 3.42039  
     axis 0 0 0   XYZ 
    dof ry rz
    limits (-10.0 20.0)
           (-20.0 0.0)
  end
  begin
     id 25 
     name rhumerus
     direction -1 -4.48977e-011 2.21478e-027  
     length 5.16954   
     axis 180 30 90   XYZ
    dof rx ry rz
    limits (-90.0 60.0)
           (-90.0 90.0)
           (-90.0 90.0)
  end
  begin
     id 26 
     name rradius
     direction -1 -4.48967e-011 5.63677e-027   
     length 3.38287   
     axis 180 30 90   XYZ
    dof rx
    limits (-10.0 170.0)
  end
  begin
     id 27 
     name rwrist
     direction -1 -4.48967e-011 4.76501e-027   
     length 1.69144   
     axis -3.27502e-015 -90 -90   XYZ
    dof ry
    limits (-180.0 0.0)
  end
  begin
     id 28
     name rhand
     direction -1 -4.48902e-011 9.53292e-027   
     length 0.817967   
     axis -6.08098e-015 -90 -90   XYZ
    dof rx rz
    limits (-90.0 90.0)
           (-45.0 45.0)
  end
  begin
     id 29
     name rfingers
     direction -1 -4.49012e-011 1.90561e-026   
     length 0.659466   
     axis -1.21619e-014 -90 -90   XYZ
    dof rx
    limits (0.0 90.0)
  end
  begin
     id 30
     name rthumb
     direction -0.707107 -6.34944e-011 0.707107   
     length 0.946865   
     axis -90 -45 9.86923e-015   XYZ
    dof rx rz
    limits (-45.0 45.0)
           (-45.0 45.0)
  end
:hierarchy
  begin
    root lhipjoint rhipjoint lowerback
    lhipjoint lfemur
    lfemur ltibia
    ltibia lfoot
    lfoot ltoes
    rhipjoint rfemur
    rfemur rtibia
    rtibia rfoot
    rfoot rtoes
    lowerback upperback
    upperback thorax
    thorax lowerneck lclavicle rclavicle
    lowerneck upperneck
    upperneck head
    lclavicle lhumerus
    lhumerus lradius
    lradius lwrist
    lwrist lhand lthumb
    lhand lfingers
    rclavicle rhumerus
    rhumerus rradius
    rradius rwrist
    rwrist rhand rthumb
    rhand rfingers
  end

#!OML:ASF F:\twosubjects\two\wednesday\Session 1\Justin1.ASF
:FULLY-SPECIFIED
:DEGREES
98
root 2.6755 17.5121 -1.56173 -1.41148 -5.30526 -6.39276
lowerback 4.51787 -1.77237 5.52963
upperback 0.995122 -2.0246 5.05493
thorax -1.51539 -1.02987 2.23512
lowerneck -14.7921 0.559487 -8.73856
upperneck 16.3441 1.89336 4.5919
head 7.32681 0.793717 3.14296
rclavicle -3.98563e-014 5.56597e-015
rhumerus -50.8106 -22.7598 -61.7021
rradius 20.4237
rwrist -4.23931
rhand -10.2265 13.677
rfingers 7.12502
rthumb 15.7655 -15.701
lclavicle -3.98563e-014 5.56597e-015
lhumerus 21.2874 14.9073 76.7899
lradius 39.4191
lwrist 10.4701
lhand 5.83199 41.4633
lfingers 7.12502
lthumb 31.1632 68.8335
rfemur -0.609725 0.377402 34.3416
rtibia 20.1431
rfoot -14.2681 3.8812
rtoes 12.3603
lfemur -40.2415 5.23427 -7.231
ltibia 32.5059
lfoot -22.4252 5.33926
ltoes -30.3638
99
root 2.66936 17.5036 -1.44687 -1.0996 -5.66515 -6.75335
lowerback 4.76132 -1.66465 5.59453
upperback 0.834432 -1.83843 5.36734
thorax -1.8095 -0.942744 2.52501
lowerneck -14.9386 0.471173 -8.84163
upperneck 16.4186 1.9004 4.11135
head 7.38412 0.743991 3.00469
rclavicle -5.81445e-015 2.38542e-014
rhumerus -50.8925 -22.0441 -61.6864
rradius 20.939
rwrist -5.24058
rhand -10.7267 13.7787
rfingers 7.12502
rthumb 15.2838 -15.6366
lclavicle -5.81445e-015 2.38542e-014
lhumerus 19.3553 11.0636 73.2533
lradius 40.9467
lwrist 15.9362
lhand 2.93206 40.0971
lfingers 7.12502
lthumb 28.3956 67.9632
rfemur 0.0230514 0.890125 34.8143
rtibia 19.1693
rfoot -14.1816 3.55392
rtoes 11.7153
lfemur -41.2775 4.98142 -6.62384
ltibia 31.4959
lfoot -22.8271 5.90695
ltoes -30.8309
100
root 2.67078 17.5241 -1.31726 -0.808997 -5.70278 -6.54159
lowerback 4.74256 -1.76368 5.45877
upperback 0.587871 -1.96259 5.21993
thorax -2.0548 -1.00886 2.46072
lowerneck -15.1974 0.62381 -7.93986
upperneck 16.8277 2.04397 3.47541
head 7.57151 0.800004 2.67226
rclavicle 1.78409e-014 -3.02153e-014
rhumerus -51.2525 -21.5108 -61.8724
rradius 21.4528
rwrist -5.82022
rhand -11.0791 14.066
rfingers 7.12502
rthumb 14.9443 -15.3748
lclavicle 1.78409e-014 -3.02153e-014
lhumerus 19.621 11.2626 72.2678
lradius 41.4537
lwrist 16.3287
lhand 2.97787 39.3844
lfingers 7.12502
lthumb 28.4394 67.2432
rfemur 0.678365 0.867047 34.5247
rtibia 18.258
rfoot -14.2553 3.58371
rtoes 11.7984
lfemur -42.2581 4.17083 -6.52492
ltibia 30.5566
lfoot -24.2903 5.90426
ltoes -25.1261
101
root 2.68616 17.552 -1.17336 -0.77562 -5.26769 -5.73376
lowerback 4.44883 -1.89672 4.95386
upperback 0.622401 -2.19933 4.89505
thorax -1.84758 -1.12109 2.40647
lowerneck -14.6413 0.734055 -8.67338
upperneck 16.2544 2.09652 4.63011
head 7.25607 0.899595 3.16077
rclavicle -2.82274e-014 1.27222e-014
rhumerus -51.2997 -21.7403 -61.6131
rradius 21.6229
rwrist -5.93017
rhand -11.336 14.0257
rfingers 7.12502
rthumb 14.6968 -15.4334
lclavicle -2.82274e-014 1.27222e-014
lhumerus 20.408 11.4102 71.742
lradius 41.6933
lwrist 16.4555
lhand 1.96241 39.0535
lfingers 7.12502
lthumb 27.4686 67.0703
rfemur 1.73259 -0.104563 33.3857
rtibia 17.0382
rfoot -14.357 4.17363
rtoes 12.0803
lfemur -43.2408 3.95852 -7.78726
ltibia 29.916
lfoot -23.9814 5.76399
ltoes -24.6269
102
root 2.67448 17.5512 -1.03841 -0.664883 -5.20854 -5.98815
lowerback 3.96337 -1.80966 5.06355
upperback 0.949652 -2.1428 4.99892
thorax -1.23748 -1.08456 2.42305
lowerneck -14.4376 0.632862 -9.23882
upperneck 15.5328 1.9779 5.14429
head 6.98154 0.870287 3.39298
rclavicle 4.91992e-015 -1.74931e-014
rhumerus -50.947 -22.1389 -61.4774
rradius 21.8103
rwrist -6.24228
rhand -11.2991 12.9889
rfingers 7.12502
rthumb 14.7324 -16.4675
lclavicle 4.91992e-015 -1.74931e-014
lhumerus 21.6856 11.7579 71.8849
lradius 42.0958
lwrist 16.2974
lhand 3.24019 40.2923
lfingers 7.12502
lthumb 28.6901 68.109
rfemur 2.90079 -0.166736 33.6392
rtibia 15.5413
rfoot -14.0594 4.18236
rtoes 12.319
lfemur -44.2622 4.21075 -7.78229
ltibia 29.4697
lfoot -22.0191 6.01019
ltoes -29.3701
103
root 2.67453 17.5346 -0.91348 -0.568407 -5.56701 -7.13837
lowerback 4.65055 -1.86042 6.05902
upperback 0.593414 -2.06795 5.30804
thorax -2.01521 -1.06491 2.22317
lowerneck -14.1048 0.739471 -8.68577
upperneck 15.6619 2.06504 4.60809
head 6.97248 0.890631 3.13202
rclavicle -1.92324e-014 -1.59028e-015
rhumerus -51.355 -21.2315 -61.6485
rradius 22.1064
rwrist -6.96924
rhand -11.0588 12.255
rfingers 7.12502
rthumb 14.9638 -17.1844
lclavicle -1.92324e-014 -1.59028e-015
lhumerus 21.5473 12.4127 71.5087
lradius 42.6491
lwrist 16.0564
lhand 3.60952 40.424
lfingers 7.12502
lthumb 29.0428 68.1804
rfemur 4.17723 0.430812 34.9478
rtibia 13.9845
rfoot -13.5765 3.98203
rtoes 13.2165
lfemur -45.1115 4.1839 -6.31448
ltibia 29.1904
lfoot -20.7998 6.55044
ltoes -30.2785
104
root 2.671 17.5454 -0.789094 -0.358309 -5.83484 -7.12245
lowerback 4.72086 -1.86969 5.92234
upperback 0.494868 -2.07376 5.26466
thorax -2.15367 -1.06999 2.25955
lowerneck -14.5756 0.744135 -7.95539
upperneck 16.1742 2.05441 4.0262
head 7.23761 0.867985 2.83705
rclavicle -2.75317e-014 5.80451e-014
rhumerus -51.231 -21.0593 -61.7737
rradius 22.0952
rwrist -7.41778
rhand -11.0387 12.5559
rfingers 7.12502
rthumb 14.9832 -16.8821
lclavicle -2.75317e-014 5.80451e-014
lhumerus 22.0225 13.2197 71.2255
lradius 42.7527
lwrist 15.7659
lhand 3.82298 40.1365
lfingers 7.12502
lthumb 29.2467 67.8576
rfemur 5.23591 0.934369 34.9473
rtibia 12.4332
rfoot -13.1991 3.86235
rtoes 13.8304
lfemur -46.036 3.63303 -5.91152
ltibia 29.0235
lfoot -20.2134 7.55215
ltoes -29.9865
105
root 2.67298 17.537 -0.660221 -0.101719 -6.06885 -7.28816
lowerback 4.683 -1.7937 6.04558
upperback 0.455572 -1.96597 5.32166
thorax -2.17484 -1.01798 2.24288
lowerneck -14.8914 0.760572 -8.05454
upperneck 16.5854 2.06316 4.35183
head 7.42024 0.890328 2.97464
rclavicle -2.34566e-014 5.1684e-014
rhumerus -51.1278 -21.2158 -61.6232
rradius 22.1783
rwrist -7.70448
rhand -11.1107 13.3842
rfingers 7.12502
rthumb 14.9139 -16.0589
lclavicle -2.34566e-014 5.1684e-014
lhumerus 22.6846 13.4896 70.9574
lradius 42.7651
lwrist 15.8569
lhand 3.62197 39.7077
lfingers 7.12502
lthumb 29.0547 67.462
rfemur 6.43349 0.997333 35.0594
rtibia 10.5188
rfoot -12.6296 4.07715
rtoes 13.6726
lfemur -46.9977 3.10759 -5.31849
ltibia 28.9651
lfoot -19.3615 8.41111
ltoes -30.4873
106
root 2.67867 17.5187 -0.532868 0.108294 -6.1487 -7.52137
lowerback 4.73639 -1.70669 6.20592
upperback 0.476372 -1.83488 5.48677
thorax -2.18217 -0.95365 2.31851
lowerneck -15.0971 0.821125 -8.64327
upperneck 16.6959 2.16146 5.08005
head 7.46746 0.969505 3.32863
rclavicle 2.37548e-014 -5.56597e-014
rhumerus -50.9085 -21.3331 -61.4216
rradius 22.3764
rwrist -7.95052
rhand -11.3581 14.1816
rfingers 7.12502
rthumb 14.6755 -15.279
lclavicle 2.37548e-014 -5.56597e-014
lhumerus 23.4679 13.3677 70.7417
lradius 43.061
lwrist 16.3215
lhand 2.86231 38.811
lfingers 7.12502
lthumb 28.329 66.6882
rfemur 7.85292 0.953713 35.2376
rtibia 8.22283
rfoot -11.785 4.30576
rtoes 13.7898
lfemur -47.9056 2.88877 -4.97033
ltibia 28.9048
lfoot -18.191 8.83424
ltoes -29.6959
107
root 2.67884 17.5417 -0.403743 0.168033 -6.09381 -7.44336
lowerback 4.73967 -1.69656 6.10708
upperback 0.553702 -1.83226 5.50599
thorax -2.09997 -0.949573 2.3912
lowerneck -15.1286 0.834238 -8.90709
upperneck 16.4177 2.21912 5.22672
head 7.3724 1.00072 3.42038
rclavicle -3.17559e-014 3.33958e-014
rhumerus -50.6632 -21.4361 -61.3165
rradius 22.498
rwrist -8.12592
rhand -11.4122 14.0187
rfingers 7.12502
rthumb 14.6234 -15.4458
lclavicle -3.17559e-014 3.33958e-014
lhumerus 24.0961 13.6365 70.7193
lradius 43.3156
lwrist 16.3836
lhand 3.84609 39.7502
lfingers 7.12502
lthumb 29.2688 67.4674
rfemur 9.55562 0.758562 35.0532
rtibia 5.5343
rfoot -10.6642 4.58965
rtoes 14.8627
lfemur -48.5196 2.59541 -5.06934
ltibia 28.9112
lfoot -17.7008 9.10216
ltoes -25.1622
108
root 2.6751 17.5594 -0.25927 -0.0199787 -6.13343 -7.3292
lowerback 4.93061 -1.7319 5.97934
upperback 0.523241 -1.86649 5.38805
thorax -2.2387 -0.968091 2.34912
lowerneck -14.5619 0.826667 -8.66748
upperneck 15.8564 2.14592 5.01844
head 7.1019 0.967738 3.28289
rclavicle -2.43511e-015 2.54444e-014
rhumerus -50.9222 -21.5289 -61.1931
rradius 22.7118
rwrist -8.02539
rhand -11.1823 13.1794
rfingers 7.12502
rthumb 14.8449 -16.2688
lclavicle -2.43511e-015 2.54444e-014
lhumerus 23.9998 13.9029 70.4535
lradius 43.6659
lwrist 16.4528
lhand 3.68379 39.2421
lfingers 7.12502
lthumb 29.1138 66.9862
rfemur 12.3154 0.601045 34.8022
rtibia 1.41845
rfoot -8.91322 4.8822
rtoes 16.3953
lfemur -48.712 2.4812 -5.29446
ltibia 28.8804
lfoot -17.5396 9.03007
ltoes -20.9751
109
root 2.67307 17.5276 -0.11403 0.0742332 -6.28818 -7.38544
lowerback 4.83956 -1.64703 5.87012
upperback 0.465711 -1.76389 5.40122
thorax -2.24316 -0.916676 2.4144
lowerneck -14.022 0.765594 -8.39418
upperneck 15.5497 2.00035 4.77642
head 6.92567 0.893712 3.12996
rclavicle 8.59744e-015 -2.38542e-015
rhumerus -51.1195 -21.9134 -60.8643
rradius 22.8817
rwrist -7.67836
rhand -11.0135 12.5353
rfingers 7.12502
rthumb 15.0075 -16.9008
lclavicle 8.59744e-015 -2.38542e-015
lhumerus 24.6326 14.0739 70.4418
lradius 43.2654
lwrist 16.4975
lhand 3.79103 39.3139
lfingers 7.12502
lthumb 29.2162 67.0403
rfemur 13.5555 0.605998 34.8228
rtibia 4.29375e-014
rfoot -8.74421 5.0103
rtoes 15.1702
lfemur -49.312 3.20493 -5.81899
ltibia 28.897
lfoot -16.3131 8.49941
ltoes -22.5054
110
root 2.67765 17.4892 0.0218372 0.466933 -6.40779 -7.27776
lowerback 4.23895 -1.53206 5.56623
upperback 0.644327 -1.69811 5.48991
thorax -1.70919 -0.873349 2.64658
lowerneck -14.2239 0.687518 -8.45862
upperneck 15.4925 1.94988 4.64372
head 6.94764 0.85625 3.09395
rclavicle -1.71949e-014 -6.36111e-014
rhumerus -50.3911 -22.3887 -60.7914
rradius 22.7325
rwrist -7.54673
rhand -10.9476 12.2353
rfingers 7.12502
rthumb 15.0709 -17.1961
lclavicle -1.71949e-014 -6.36111e-014
lhumerus 25.5324 14.2251 70.4928
lradius 43.1595
lwrist 16.66
lhand 4.10938 39.5908
lfingers 7.12502
lthumb 29.5201 67.2639
rfemur 13.7001 0.654225 34.6834
rtibia -6.04305e-014
rfoot -9.27061 4.982
rtoes 12.9794
lfemur -50.1831 3.90689 -6.65857
ltibia 28.8956
lfoot -15.0211 8.19795
ltoes -26.7677
